# xmcd
#
# Track frame offsets:
#	150
#	18565
#	35017
#	53480
#	67715
#	83377
#	96252
#	111790
#	129822
#	142210
#	156565
#	174980
#	191434
#	209895
#	224130
#	239795
#	252667
#	268205
#	286237
#	298625
#
# Disc length: 4173 seconds
#
# Revision: 0
# Processed by: cddbd v1.5.2PL0 Copyright (c) Steve Scherf et al.
# Submitted via: audiograbber 1.83.01
#
DISCID=3c104b14
DTITLE=Top Hits Monthly Country  - Thmc0501
DYEAR=2005
DGENRE=Karaoke
TTITLE0=Don't Break My Heart Again - Pat Green (Vocal)
TTITLE1=Where I Belong - Rachel Proctor (Vocal)
TTITLE2=Holy Water - Big And Rich (Vocal)
TTITLE3=Long Slow Kisses - Jeff Bates (Vocal)
TTITLE4=Trying To Find Atlantis - Jamie O'neal (Vocal)
TTITLE5=You Don't Lie Here Anymore - Shelly Fairchild (Vocal)
TTITLE6=Monday Morning Church - Alan Jackson (Vocal)
TTITLE7=I Think The World Needs A Drink - Terri Clark (Vocal)
TTITLE8=Sawdust On Her Halo - Tracy Lawrence (Vocal)
TTITLE9=Getaway Car - Jenkins (Vocal)
TTITLE10=Don't Break My Heart Again - Pat Green
TTITLE11=Where I Belong - Rachel Proctor
TTITLE12=Holy Water - Big And Rich
TTITLE13=Long Slow Kisses - Jeff Bates
TTITLE14=Trying To Find Atlantis - Jamie O'neal
TTITLE15=You Don't Lie Here Anymore - Shelly Fairchild
TTITLE16=Monday Morning Church - Alan Jackson
TTITLE17=I Think The World Needs A Drink - Terri Clark
TTITLE18=Sawdust On Her Halo - Tracy Lawrence
TTITLE19=Getaway Car - Jenkins
EXTD=
EXTT0=
EXTT1=
EXTT2=
EXTT3=
EXTT4=
EXTT5=
EXTT6=
EXTT7=
EXTT8=
EXTT9=
EXTT10=
EXTT11=
EXTT12=
EXTT13=
EXTT14=
EXTT15=
EXTT16=
EXTT17=
EXTT18=
EXTT19=
PLAYORDER=
